<?xml version="1.0" standalone="no"?>
<!DOCTYPE svg PUBLIC "-//W3C//DTD SVG 20010904//EN"
 "http://www.w3.org/TR/2001/REC-SVG-20010904/DTD/svg10.dtd">
<svg version="1.0" xmlns="http://www.w3.org/2000/svg"
 width="900.000000pt" height="1569.000000pt" viewBox="0 0 900.000000 1569.000000"
 preserveAspectRatio="xMidYMid meet">
<metadata>
Created by potrace 1.10, written by Peter Selinger 2001-2011
</metadata>
<g transform="translate(0.000000,1569.000000) scale(0.100000,-0.100000)"
fill="#000000" stroke="none">
<path d="M3600 13212 c-16 -17 -30 -39 -31 -49 0 -10 -2 -29 -3 -43 -2 -14 1
-36 5 -50 5 -14 16 -79 24 -145 9 -66 22 -167 30 -225 7 -58 19 -161 25 -230
7 -69 16 -134 21 -145 5 -11 11 -68 13 -127 2 -59 7 -111 9 -115 3 -5 11 -123
17 -263 7 -140 16 -264 21 -275 17 -36 3 -992 -21 -1425 -26 -491 -26 -475 -9
-532 33 -113 96 -138 340 -138 l167 0 30 30 c93 93 182 279 233 485 11 44 26
100 34 125 8 25 15 61 15 81 0 20 5 49 10 65 47 134 75 897 55 1462 -5 137 -4
162 8 162 8 0 18 -12 22 -27 3 -15 17 -50 30 -78 22 -47 53 -115 94 -210 10
-22 26 -60 36 -85 10 -25 24 -60 32 -77 36 -85 39 -93 88 -223 18 -45 69 -185
84 -230 7 -19 16 -48 21 -65 8 -30 22 -69 46 -135 7 -19 20 -62 30 -95 37
-131 46 -162 60 -215 9 -30 22 -76 30 -101 8 -26 14 -58 14 -73 0 -14 6 -43
14 -63 8 -21 21 -85 31 -143 9 -58 21 -123 26 -145 15 -62 37 -248 44 -365 3
-58 11 -121 17 -140 15 -50 22 -874 9 -1025 -26 -302 -32 -358 -46 -482 -9
-73 -20 -144 -25 -159 -6 -14 -10 -42 -10 -62 0 -35 -12 -109 -46 -282 -30
-153 -46 -226 -60 -274 -8 -26 -14 -58 -14 -71 0 -12 -6 -40 -14 -61 -7 -22
-16 -60 -20 -86 -4 -26 -11 -50 -17 -53 -5 -4 -9 -20 -9 -36 0 -17 -5 -40 -12
-52 -6 -12 -15 -40 -19 -62 -4 -22 -12 -55 -18 -72 -6 -18 -16 -48 -22 -65 -6
-18 -15 -51 -19 -73 -4 -22 -20 -74 -34 -115 -37 -105 -44 -126 -68 -200 -27
-86 -47 -139 -64 -172 -8 -14 -14 -34 -14 -43 0 -9 -6 -29 -14 -43 -8 -15 -22
-47 -31 -72 -10 -25 -24 -59 -31 -77 -8 -17 -14 -36 -14 -43 0 -6 -13 -35 -30
-65 -16 -30 -30 -61 -30 -69 0 -8 -13 -38 -30 -66 -16 -28 -30 -55 -30 -60 0
-5 -9 -24 -20 -42 -11 -18 -20 -42 -20 -52 0 -11 -9 -29 -20 -41 -11 -12 -33
-46 -48 -76 -51 -97 -105 -193 -131 -234 -36 -56 -49 -78 -58 -95 -26 -55
-268 -399 -340 -485 -291 -347 -345 -403 -708 -734 -45 -41 -184 -151 -249
-196 -23 -16 -51 -38 -61 -48 -19 -20 -141 -104 -181 -125 -13 -7 -24 -17 -24
-21 0 -5 -8 -12 -17 -15 -21 -7 -38 -18 -118 -72 -34 -22 -67 -43 -75 -47 -8
-4 -28 -16 -45 -27 -16 -11 -39 -24 -50 -30 -11 -6 -42 -24 -70 -41 -27 -16
-63 -37 -80 -45 -16 -8 -43 -23 -60 -34 -16 -10 -48 -28 -70 -39 -93 -48 -200
-127 -215 -159 -10 -22 -24 -35 -43 -39 -101 -21 7 -151 208 -251 149 -75 185
-82 388 -82 188 0 274 13 349 51 20 10 50 19 67 19 17 0 40 4 53 9 13 5 50 16
83 25 71 20 262 88 343 122 18 7 47 20 65 27 61 26 230 102 259 118 134 70
169 89 206 112 23 15 61 38 83 50 22 12 49 27 60 33 11 6 30 20 42 31 12 11
40 30 62 43 43 26 215 153 280 207 22 18 51 42 65 53 127 99 404 376 525 525
32 39 60 72 64 75 19 14 239 315 276 378 6 9 29 45 53 80 23 35 42 65 42 67 0
2 92 162 130 225 11 19 106 214 127 260 8 19 19 42 24 50 5 8 12 22 15 30 3 8
11 29 18 45 44 100 76 179 76 187 0 6 6 24 14 41 25 58 63 164 76 212 5 17 14
46 21 65 39 111 36 102 82 265 14 48 31 110 56 205 7 25 16 65 21 90 5 25 19
88 31 140 11 52 23 115 25 140 3 25 9 54 14 65 10 21 35 161 49 282 5 40 12
76 15 81 3 5 10 60 16 123 6 63 15 125 20 139 6 14 12 68 14 120 2 52 9 131
15 175 28 213 21 1183 -9 1220 -5 6 -9 52 -9 103 0 51 -5 100 -10 110 -5 9
-12 46 -15 82 -9 84 -34 232 -51 295 -15 59 -33 142 -44 205 -4 25 -13 63 -19
85 -6 22 -18 72 -28 110 -17 73 -59 221 -108 385 -9 30 -21 69 -26 85 -14 50
-54 161 -76 213 -8 18 -14 41 -14 50 0 10 -7 27 -15 38 -8 10 -15 28 -15 40 0
11 -4 24 -8 30 -4 5 -18 36 -30 69 -13 33 -29 73 -37 88 -8 16 -15 35 -15 42
0 12 -17 51 -42 95 -4 8 -11 22 -14 30 -44 112 -261 559 -334 685 -13 22 -33
58 -45 80 -20 38 -56 99 -83 140 -6 11 -16 29 -21 40 -5 11 -21 37 -35 58 -14
21 -26 40 -26 44 0 3 -13 22 -30 43 -16 21 -30 41 -30 44 0 4 -12 25 -27 49
-15 23 -32 49 -38 59 -65 105 -194 316 -208 340 -20 34 -15 49 11 30 9 -7 26
-17 37 -22 11 -6 34 -19 50 -30 17 -11 39 -24 50 -30 11 -6 32 -18 47 -28 48
-31 169 -107 186 -117 10 -5 33 -21 52 -35 19 -14 42 -29 51 -35 9 -5 48 -29
85 -53 38 -24 78 -48 89 -55 11 -7 36 -24 55 -38 19 -14 42 -29 50 -32 8 -4
27 -15 42 -25 40 -26 170 -104 198 -119 14 -8 61 -34 105 -58 139 -78 308
-156 450 -209 97 -36 105 -35 105 15 0 37 -6 46 -80 117 -44 42 -91 86 -104
97 -13 11 -80 71 -148 134 -67 62 -150 134 -183 159 -33 25 -62 49 -65 53 -3
4 -52 43 -110 87 -58 45 -113 88 -122 97 -10 8 -21 15 -24 15 -3 0 -23 13 -43
29 -43 34 -161 114 -181 124 -8 4 -27 15 -42 25 -62 39 -194 119 -208 125 -8
4 -28 16 -45 27 -16 11 -37 23 -45 27 -8 3 -33 18 -55 32 -22 14 -58 35 -80
47 -22 11 -56 31 -75 42 -19 12 -57 33 -85 47 -27 14 -63 35 -80 45 -16 11
-39 24 -50 29 -11 5 -37 21 -58 35 -21 14 -44 26 -51 26 -8 0 -19 7 -26 15 -7
8 -18 15 -26 15 -7 0 -19 6 -26 13 -18 17 -263 137 -280 137 -8 0 -19 5 -25
11 -6 6 -26 14 -44 19 -19 4 -50 14 -69 21 -19 6 -51 17 -70 24 -90 32 -193
52 -307 61 -71 6 -73 5 -103 -24z"/>
</g>
</svg>
